<?xml version="1.0" encoding="UTF-8"?>
<svg version="1.1" xmlns="http://www.w3.org/2000/svg" width="800" height="500">
<path d="M0 0 C6.84321563 -0.00129225 13.68642696 -0.00505787 20.52964103 -0.00973773 C29.87004506 -0.01587687 39.21043455 -0.01582896 48.5508393 -0.01148868 C52.04833824 -0.01001028 55.54582613 -0.01072375 59.04332435 -0.01332736 C63.10845686 -0.01619589 67.17355843 -0.01427847 71.23868763 -0.00853896 C72.72163909 -0.00723764 74.20459314 -0.00763035 75.68754351 -0.00984168 C77.70391882 -0.01256702 79.72029991 -0.00854081 81.73667228 -0.00415301 C82.86193698 -0.00377599 83.98720169 -0.00339896 85.14656532 -0.00301051 C88.02555168 0.12283063 88.02555168 0.12283063 92.02555168 1.12283063 C92.02555168 11.02283063 92.02555168 20.92283063 92.02555168 31.12283063 C103.24555168 31.12283063 114.46555168 31.12283063 126.02555168 31.12283063 C126.02555168 103.72283063 126.02555168 176.32283063 126.02555168 251.12283063 C114.47555168 251.12283063 102.92555168 251.12283063 91.02555168 251.12283063 C91.02555168 266.30283063 91.02555168 281.48283063 91.02555168 297.12283063 C80.79555168 297.12283063 70.56555168 297.12283063 60.02555168 297.12283063 C60.02555168 307.02283063 60.02555168 316.92283063 60.02555168 327.12283063 C56.06555168 327.12283063 52.10555168 327.12283063 48.02555168 327.12283063 C48.02555168 323.16283063 48.02555168 319.20283063 48.02555168 315.12283063 C42.08555168 315.12283063 36.14555168 315.12283063 30.02555168 315.12283063 C30.02555168 309.18283063 30.02555168 303.24283063 30.02555168 297.12283063 C23.09555168 297.12283063 16.16555168 297.12283063 9.02555168 297.12283063 C9.02555168 290.52283063 9.02555168 283.92283063 9.02555168 277.12283063 C-26.61444832 277.12283063 -62.25444832 277.12283063 -98.97444832 277.12283063 C-98.97444832 283.72283063 -98.97444832 290.32283063 -98.97444832 297.12283063 C-105.42310844 298.41256265 -111.39658314 298.184306 -117.97444832 298.12283063 C-117.97444832 303.73283063 -117.97444832 309.34283063 -117.97444832 315.12283063 C-123.58444832 315.12283063 -129.19444832 315.12283063 -134.97444832 315.12283063 C-134.97444832 319.08283063 -134.97444832 323.04283063 -134.97444832 327.12283063 C-138.93444832 327.12283063 -142.89444832 327.12283063 -146.97444832 327.12283063 C-146.97444832 317.55283063 -146.97444832 307.98283063 -146.97444832 298.12283063 C-149.20065926 298.13443219 -151.4268702 298.14603375 -153.72054207 298.15798688 C-155.86840846 298.16577785 -158.0162733 298.17185438 -160.16414559 298.17776227 C-161.66089751 298.18280184 -163.15764448 298.1896335 -164.65437996 298.19827008 C-166.80144639 298.21035222 -168.94844794 298.21606254 -171.09554207 298.22048688 C-173.03578255 298.2283421 -173.03578255 298.2283421 -175.01521981 298.23635602 C-177.97444832 298.12283063 -177.97444832 298.12283063 -178.97444832 297.12283063 C-179.06740648 295.67993276 -179.09191345 294.23253278 -179.08797371 292.78664899 C-179.08789818 291.86576993 -179.08782265 290.94489087 -179.08774483 289.99610639 C-179.08258355 288.99507382 -179.07742226 287.99404126 -179.07210457 286.96267438 C-179.07068963 285.94307126 -179.06927468 284.92346814 -179.06781685 283.87296796 C-179.06219929 280.60205956 -179.04964382 277.3312185 -179.03694832 274.06033063 C-179.03193559 271.84874307 -179.02737229 269.63715445 -179.02327645 267.425565 C-179.01307312 261.99127311 -178.99350118 256.55712765 -178.97444832 251.12283063 C-189.53444832 251.12283063 -200.09444832 251.12283063 -210.97444832 251.12283063 C-210.99756369 222.58604883 -211.01542568 194.04926928 -211.0262605 165.51248002 C-211.03142424 152.26337165 -211.03846842 139.01426919 -211.04988778 125.76516461 C-211.05983223 114.22182181 -211.06630118 102.67848328 -211.06853682 91.13513631 C-211.06984433 85.01890808 -211.07293275 78.9026921 -211.08017838 72.78646779 C-211.08693483 67.03692541 -211.08906605 61.2874004 -211.087556 55.53785443 C-211.0878325 53.42098577 -211.08983984 51.30411657 -211.0936538 49.18725133 C-211.09858519 46.31053646 -211.09744867 43.43388828 -211.09470284 40.55717206 C-211.09761568 39.70796722 -211.10052852 38.85876239 -211.10352963 37.98382407 C-211.08856953 32.23695184 -211.08856953 32.23695184 -209.97444832 31.12283063 C-207.59876313 31.03443392 -205.25236158 31.00752758 -202.87679207 31.02517438 C-201.81350434 31.0272968 -201.81350434 31.0272968 -200.72873604 31.0294621 C-198.4564312 31.0350762 -196.18422357 31.047631 -193.91194832 31.06033063 C-192.37484037 31.06534382 -190.83773087 31.06990704 -189.3006202 31.0740025 C-185.5251919 31.08505021 -181.74983662 31.10232422 -177.97444832 31.12283063 C-178.00997811 30.32063092 -178.04550789 29.51843122 -178.08211434 28.69192243 C-178.23951178 25.06494924 -178.38833184 21.43767377 -178.53694832 17.81033063 C-178.62105965 15.91637555 -178.62105965 15.91637555 -178.7068702 13.98415875 C-178.75521004 12.77566266 -178.80354989 11.56716657 -178.85335457 10.32204938 C-178.90048592 9.20660748 -178.94761727 8.09116559 -178.99617684 6.94192243 C-178.97444832 4.12283063 -178.97444832 4.12283063 -177.97444832 1.12283063 C-118.6504774 0.22217258 -59.32975873 0.01047932 0 0 Z " fill="#282F35" transform="translate(291.9744483232498,81.87716937065125)"/>
<path d="M0 0 C45.87 0 91.74 0 139 0 C139 64.02 139 128.04 139 194 C113.59 194 88.18 194 62 194 C62 179.81 62 165.62 62 151 C79.16 151 96.32 151 114 151 C114 140.11 114 129.22 114 118 C107.07 118 100.14 118 93 118 C93 122.62 93 127.24 93 132 C82.44 132 71.88 132 61 132 C61.33 137.61 61.66 143.22 62 149 C56.72 149 51.44 149 46 149 C46 158.9 46 168.8 46 179 C42.596875 179.020625 39.19375 179.04125 35.6875 179.0625 C34.61846436 179.071604 33.54942871 179.08070801 32.44799805 179.09008789 C31.18016479 179.09383423 31.18016479 179.09383423 29.88671875 179.09765625 C28.59060669 179.10551147 28.59060669 179.10551147 27.26831055 179.11352539 C25 179 25 179 22 178 C22.14133499 176.22880197 22.28823208 174.45804713 22.4375 172.6875 C22.51871094 171.70136719 22.59992188 170.71523438 22.68359375 169.69921875 C23 167 23 167 24 164 C26.31 164 28.62 164 31 164 C31 159.05 31 154.1 31 149 C26.71 149 22.42 149 18 149 C18 144.05 18 139.1 18 134 C22.62 134 27.24 134 32 134 C32 128.72 32 123.44 32 118 C27.38 118 22.76 118 18 118 C18 92.26 18 66.52 18 40 C22.62 40 27.24 40 32 40 C32 34.72 32 29.44 32 24 C27.38 24 22.76 24 18 24 C18 16.74 18 9.48 18 2 C13.05 2 8.1 2 3 2 C3 60.41 3 118.82 3 179 C2.01 179 1.02 179 0 179 C0 119.93 0 60.86 0 0 Z " fill="#E8882E" transform="translate(110,130)"/>
<path d="M0 0 C37.29 0 74.58 0 113 0 C113 54.12 113 108.24 113 164 C101.12 164 89.24 164 77 164 C77.495 170.93 77.495 170.93 78 178 C62.49 178 46.98 178 31 178 C31 173.38 31 168.76 31 164 C26.05 164 21.1 164 16 164 C16 159.38 16 154.76 16 150 C20.95 150 25.9 150 31 150 C31.33 145.05 31.66 140.1 32 135 C38.27 135.33 44.54 135.66 51 136 C51 129.73 51 123.46 51 117 C39.12 117 27.24 117 15 117 C15 112.05 15 107.1 15 102 C9.72 102 4.44 102 -1 102 C-1 97.71 -1 93.42 -1 89 C4.61 89 10.22 89 16 89 C16 78.44 16 67.88 16 57 C10.72 57 5.44 57 0 57 C0 52.05 0 47.1 0 42 C4.95 42 9.9 42 15 42 C14.98259766 40.24236328 14.98259766 40.24236328 14.96484375 38.44921875 C14.90655258 29.89316783 15.02689591 21.51466077 16 13 C10.72 13 5.44 13 0 13 C0 8.71 0 4.42 0 0 Z " fill="#5D988B" transform="translate(277,130)"/>
<path d="M0 0 C0.89192326 -0.00085442 1.78384653 -0.00170885 2.70279777 -0.00258917 C5.70926438 -0.00424408 8.71567593 0.00127762 11.72213745 0.00672913 C13.87018838 0.00701102 16.01823941 0.00685322 18.16629028 0.00628662 C24.0131012 0.00599874 29.85989177 0.01189401 35.70669794 0.01886058 C41.81127985 0.02509562 47.91586218 0.02569804 54.02044678 0.02688599 C65.58723961 0.02999886 77.15402304 0.03821165 88.72081172 0.04823548 C101.88626538 0.05939798 115.05171947 0.06490741 128.21717668 0.06993091 C155.30591231 0.0803943 182.39463959 0.09799289 209.48336792 0.12025452 C208.82336792 1.77025452 208.16336792 3.42025452 207.48336792 5.12025452 C209.46336792 5.61525452 209.46336792 5.61525452 211.48336792 6.12025452 C210.82336792 6.78025452 210.16336792 7.44025452 209.48336792 8.12025452 C207.17336792 8.12025452 204.86336792 8.12025452 202.48336792 8.12025452 C202.15336792 23.63025452 201.82336792 39.14025452 201.48336792 55.12025452 C191.25336792 55.12025452 181.02336792 55.12025452 170.48336792 55.12025452 C170.48336792 65.02025452 170.48336792 74.92025452 170.48336792 85.12025452 C166.52336792 85.12025452 162.56336792 85.12025452 158.48336792 85.12025452 C158.48336792 81.16025452 158.48336792 77.20025452 158.48336792 73.12025452 C152.54336792 73.12025452 146.60336792 73.12025452 140.48336792 73.12025452 C140.48336792 67.18025452 140.48336792 61.24025452 140.48336792 55.12025452 C133.55336792 55.12025452 126.62336792 55.12025452 119.48336792 55.12025452 C119.48336792 48.52025452 119.48336792 41.92025452 119.48336792 35.12025452 C83.84336792 35.12025452 48.20336792 35.12025452 11.48336792 35.12025452 C11.48336792 41.72025452 11.48336792 48.32025452 11.48336792 55.12025452 C5.0347078 56.40998654 -0.9387669 56.18172989 -7.51663208 56.12025452 C-7.51663208 61.73025452 -7.51663208 67.34025452 -7.51663208 73.12025452 C-13.12663208 73.12025452 -18.73663208 73.12025452 -24.51663208 73.12025452 C-24.51663208 77.08025452 -24.51663208 81.04025452 -24.51663208 85.12025452 C-28.47663208 85.12025452 -32.43663208 85.12025452 -36.51663208 85.12025452 C-36.51663208 75.55025452 -36.51663208 65.98025452 -36.51663208 56.12025452 C-32.55663208 56.12025452 -28.59663208 56.12025452 -24.51663208 56.12025452 C-24.51663208 52.49025452 -24.51663208 48.86025452 -24.51663208 45.12025452 C-19.89663208 45.12025452 -15.27663208 45.12025452 -10.51663208 45.12025452 C-10.51663208 30.60025452 -10.51663208 16.08025452 -10.51663208 1.12025452 C-7.236857 -0.51963303 -3.60418968 -0.01246251 0 0 Z " fill="#17222E" transform="translate(181.51663208007813,323.87974548339844)"/>
<path d="M0 0 C1.60488281 0.07250977 1.60488281 0.07250977 3.2421875 0.14648438 C4.90894531 0.2305957 4.90894531 0.2305957 6.609375 0.31640625 C8.29933594 0.3947168 8.29933594 0.3947168 10.0234375 0.47460938 C12.80233256 0.60413414 15.58089162 0.74083177 18.359375 0.87890625 C18.359375 5.16890625 18.359375 9.45890625 18.359375 13.87890625 C23.639375 13.87890625 28.919375 13.87890625 34.359375 13.87890625 C34.49796856 23.58045525 33.95560636 33.20079364 33.359375 42.87890625 C28.409375 42.87890625 23.459375 42.87890625 18.359375 42.87890625 C18.359375 47.82890625 18.359375 52.77890625 18.359375 57.87890625 C23.639375 57.87890625 28.919375 57.87890625 34.359375 57.87890625 C34.359375 68.43890625 34.359375 78.99890625 34.359375 89.87890625 C28.749375 89.87890625 23.139375 89.87890625 17.359375 89.87890625 C17.359375 94.16890625 17.359375 98.45890625 17.359375 102.87890625 C22.639375 102.87890625 27.919375 102.87890625 33.359375 102.87890625 C33.359375 107.82890625 33.359375 112.77890625 33.359375 117.87890625 C45.239375 117.87890625 57.119375 117.87890625 69.359375 117.87890625 C69.359375 124.14890625 69.359375 130.41890625 69.359375 136.87890625 C66.78125 136.89953125 64.203125 136.92015625 61.546875 136.94140625 C60.73887451 136.95051025 59.93087402 136.95961426 59.09838867 136.96899414 C55.91555687 136.98137249 53.39881178 136.89205184 50.359375 135.87890625 C50.37097656 136.71035156 50.38257813 137.54179687 50.39453125 138.3984375 C50.40355469 139.48511719 50.41257812 140.57179688 50.421875 141.69140625 C50.43347656 142.77035156 50.44507813 143.84929687 50.45703125 144.9609375 C50.359375 147.87890625 50.359375 147.87890625 49.359375 150.87890625 C44.409375 150.87890625 39.459375 150.87890625 34.359375 150.87890625 C34.359375 155.49890625 34.359375 160.11890625 34.359375 164.87890625 C39.309375 164.87890625 44.259375 164.87890625 49.359375 164.87890625 C49.359375 169.49890625 49.359375 174.11890625 49.359375 178.87890625 C57.40888738 178.81605741 65.45798243 178.74070874 73.50713921 178.64319134 C77.24448375 178.59841573 80.98171747 178.55917602 84.71923828 178.5324707 C88.3244999 178.50650865 91.92933669 178.46615813 95.53433609 178.41571999 C96.9114263 178.39900287 98.28859007 178.38751882 99.66576767 178.38129234 C101.59093535 178.37170466 103.5159712 178.34197917 105.44091797 178.3112793 C106.53790009 178.30017624 107.6348822 178.28907318 108.7651062 178.27763367 C110.04926926 178.0802636 110.04926926 178.0802636 111.359375 177.87890625 C112.019375 176.88890625 112.679375 175.89890625 113.359375 174.87890625 C112.699375 174.87890625 112.039375 174.87890625 111.359375 174.87890625 C111.9453125 168.7265625 111.9453125 168.7265625 112.359375 166.87890625 C114.78137572 165.66790589 116.40745709 165.71187533 119.109375 165.69140625 C119.94984375 165.67722656 120.7903125 165.66304687 121.65625 165.6484375 C124.78848541 165.91549225 127.42003245 166.79169329 130.359375 167.87890625 C130.44636 171.64959457 130.49976079 175.42002557 130.546875 179.19140625 C130.57201172 180.26326172 130.59714844 181.33511719 130.62304688 182.43945312 C130.63754883 183.98149414 130.63754883 183.98149414 130.65234375 185.5546875 C130.67590942 186.97648315 130.67590942 186.97648315 130.69995117 188.42700195 C130.359375 190.87890625 130.359375 190.87890625 129.1785841 192.50960255 C126.67816615 194.39164654 125.02527106 194.2484083 121.91145325 194.2396698 C120.77983261 194.24379379 119.64821198 194.24791779 118.4822998 194.25216675 C117.24008667 194.24138092 115.99787354 194.23059509 114.71801758 194.21948242 C113.41060104 194.2199205 112.10318451 194.22035858 110.75614929 194.22080994 C107.16954113 194.22167171 103.58323313 194.20401674 99.9966948 194.18308806 C96.24908861 194.1643515 92.50147576 194.16257321 88.75382996 194.15901184 C81.65650355 194.14968247 74.55931556 194.12505669 67.46205014 194.09496337 C59.3823473 194.06144706 51.3026379 194.04494034 43.22288287 194.02987707 C26.60163252 193.99850785 9.98052141 193.9457301 -6.640625 193.87890625 C-7.82196987 190.33487163 -7.7970377 187.12087036 -7.80557251 183.43235779 C-7.81121605 182.66758135 -7.8168596 181.90280492 -7.82267416 181.11485344 C-7.84041561 178.54459294 -7.85110045 175.97435143 -7.86181641 173.40405273 C-7.87303011 171.56451163 -7.88466226 169.72497303 -7.89668274 167.88543701 C-7.92803929 162.88359206 -7.95314574 157.88173352 -7.9768796 152.87984729 C-8.0024436 147.65304134 -8.03277674 142.42626268 -8.06234741 137.19947815 C-8.11119885 128.42214522 -8.15587637 119.6447981 -8.19824219 110.86743164 C-8.24734327 100.70802372 -8.30364395 90.54867439 -8.36366332 80.38932556 C-8.41493707 71.67764678 -8.46228909 62.96595311 -8.50635087 54.25423485 C-8.53269908 49.04624451 -8.56043815 43.83827138 -8.5917244 38.63030815 C-8.62091204 33.73599057 -8.64519342 28.84167313 -8.66562462 23.9473114 C-8.67395438 22.14691339 -8.68402114 20.34652249 -8.69591331 18.54614449 C-8.71181432 16.09691449 -8.72154632 13.64773743 -8.72964478 11.19847107 C-8.73576645 10.47873578 -8.74188812 9.75900049 -8.74819529 9.01745504 C-8.75477444 4.10720513 -8.75477444 4.10720513 -7.640625 1.87890625 C-8.300625 1.54890625 -8.960625 1.21890625 -9.640625 0.87890625 C-6.32193909 -0.14355196 -3.45778911 -0.16553246 0 0 Z " fill="#0B5774" transform="translate(258.640625,129.12109375)"/>
<path d="M0 0 C4.95 0 9.9 0 15 0 C15 7.26 15 14.52 15 22 C19.62 22 24.24 22 29 22 C29 27.28 29 32.56 29 38 C24.38 38 19.76 38 15 38 C15 63.74 15 89.48 15 116 C19.62 116 24.24 116 29 116 C29 121.28 29 126.56 29 132 C24.38 132 19.76 132 15 132 C15 136.95 15 141.9 15 147 C19.29 147 23.58 147 28 147 C28 151.95 28 156.9 28 162 C25.69 162 23.38 162 21 162 C20.90912109 163.26457031 20.90912109 163.26457031 20.81640625 164.5546875 C20.73261719 165.65039062 20.64882812 166.74609375 20.5625 167.875 C20.48128906 168.96554687 20.40007812 170.05609375 20.31640625 171.1796875 C20 174 20 174 19 176 C26.92 176.33 34.84 176.66 43 177 C43 167.1 43 157.2 43 147 C47.95 146.67 52.9 146.34 58 146 C58 140.72 58 135.44 58 130 C68.56 130 79.12 130 90 130 C90 125.38 90 120.76 90 116 C96.93 116 103.86 116 111 116 C111 126.89 111 137.78 111 149 C93.84 149 76.68 149 59 149 C59.33 163.52 59.66 178.04 60 193 C59.34 193 58.68 193 58 193 C58 207.52 58 222.04 58 237 C53.38 237 48.76 237 44 237 C44 240.63 44 244.26 44 248 C39.38 248 34.76 248 30 248 C30.33 229.85 30.66 211.7 31 193 C26.05 193 21.1 193 16 193 C15.67 188.05 15.34 183.1 15 178 C10.05 177.67 5.1 177.34 0 177 C0 118.59 0 60.18 0 0 Z " fill="#8F372A" transform="translate(113,132)"/>
<path d="M0 0 C4.95 0 9.9 0 15 0 C15 7.26 15 14.52 15 22 C19.62 22 24.24 22 29 22 C29 27.28 29 32.56 29 38 C24.38 38 19.76 38 15 38 C15 63.74 15 89.48 15 116 C19.62 116 24.24 116 29 116 C29 121.28 29 126.56 29 132 C24.38 132 19.76 132 15 132 C15 136.95 15 141.9 15 147 C19.29 147 23.58 147 28 147 C28 151.95 28 156.9 28 162 C25.69 162 23.38 162 21 162 C20.90912109 163.26457031 20.90912109 163.26457031 20.81640625 164.5546875 C20.73261719 165.65039062 20.64882812 166.74609375 20.5625 167.875 C20.48128906 168.96554687 20.40007812 170.05609375 20.31640625 171.1796875 C20 174 20 174 19 176 C19.99 176.33 20.98 176.66 22 177 C21.01 177 20.02 177 19 177 C19 181.95 19 186.9 19 192 C23.29 192 27.58 192 32 192 C32 210.15 32 228.3 32 247 C31.67 247 31.34 247 31 247 C31 229.18 31 211.36 31 193 C26.05 193 21.1 193 16 193 C15.67 188.05 15.34 183.1 15 178 C10.05 177.67 5.1 177.34 0 177 C0 118.59 0 60.18 0 0 Z " fill="#8F352A" transform="translate(113,132)"/>
<path d="M0 0 C11.55 0 23.1 0 35 0 C35 54.12 35 108.24 35 164 C32.36 164 29.72 164 27 164 C27 113.51 27 63.02 27 11 C22.71 11 18.42 11 14 11 C14 15.95 14 20.9 14 26 C9.05 26 4.1 26 -1 26 C-1 30.29 -1 34.58 -1 39 C-5.29 39 -9.58 39 -14 39 C-14 30.09 -14 21.18 -14 12 C-9.38 12 -4.76 12 0 12 C0 8.04 0 4.08 0 0 Z " fill="#E2D3AC" transform="translate(355,130)"/>
<path d="M0 0 C0.33 0 0.66 0 1 0 C1 64.02 1 128.04 1 194 C-24.41 194 -49.82 194 -76 194 C-76 189.05 -76 184.1 -76 179 C-50.92 179 -25.84 179 0 179 C0 119.93 0 60.86 0 0 Z " fill="#AF723C" transform="translate(248,130)"/>
<path d="M0 0 C6.93 0 13.86 0 21 0 C21 10.56 21 21.12 21 32 C3.84 32 -13.32 32 -31 32 C-33.68741925 26.6251615 -32 20.00925213 -32 14 C-21.44 14 -10.88 14 0 14 C0 9.38 0 4.76 0 0 Z " fill="#142130" transform="translate(203,248)"/>
<path d="M0 0 C1.02083176 0.00007553 2.04166351 0.00015106 3.09342957 0.00022888 C4.19350845 0.00539017 5.29358734 0.01055145 6.42700195 0.01586914 C7.5547554 0.01728409 8.68250885 0.01869904 9.84443665 0.02015686 C13.45141232 0.02576069 17.05832624 0.03831386 20.6652832 0.05102539 C23.10864168 0.0560399 25.55200113 0.06060289 27.99536133 0.06469727 C33.9895258 0.07573137 39.98364403 0.0929986 45.9777832 0.11352539 C45.9777832 6.38352539 45.9777832 12.65352539 45.9777832 19.11352539 C33.96672345 19.16913215 21.98345604 18.95503842 9.9777832 18.61352539 C8.21997619 18.56514836 6.4621637 18.51697024 4.7043457 18.46899414 C0.46207698 18.35315064 -3.78004922 18.23326399 -8.0222168 18.11352539 C-8.0222168 12.50352539 -8.0222168 6.89352539 -8.0222168 1.11352539 C-5.04340253 0.1205873 -3.10734441 -0.00767246 0 0 Z " fill="#15242E" transform="translate(282.022216796875,246.886474609375)"/>
<path d="M0 0 C0.66 0 1.32 0 2 0 C2.33 63.36 2.66 126.72 3 192 C47.88 191.67 92.76 191.34 139 191 C139 182.75 139 174.5 139 166 C134.93822627 165.18764525 131.76649908 164.89267583 127.6875 164.9375 C126.61886719 164.94652344 125.55023438 164.95554687 124.44921875 164.96484375 C123.64097656 164.97644531 122.83273437 164.98804688 122 165 C122.020625 165.94875 122.04125 166.8975 122.0625 167.875 C122 171 122 171 121 173 C121.66 173 122.32 173 123 173 C122.34 174.32 121.68 175.64 121 177 C118.52076199 177.02685095 116.0418116 177.04676547 113.5625 177.0625 C112.85544922 177.07087891 112.14839844 177.07925781 111.41992188 177.08789062 C109.61306441 177.09653588 107.80612397 177.05220011 106 177 C105.67 176.67 105.34 176.34 105 176 C105 171.71 105 167.42 105 163 C116.88 163 128.76 163 141 163 C141 172.9 141 182.8 141 193 C94.47 193 47.94 193 0 193 C0 129.31 0 65.62 0 0 Z " fill="#1D515D" transform="translate(249,131)"/>
<path d="M0 0 C0.87454834 0.00523682 1.74909668 0.01047363 2.65014648 0.01586914 C3.50036377 0.0183667 4.35058105 0.02086426 5.2265625 0.0234375 C6.85742798 0.03709351 6.85742798 0.03709351 8.52124023 0.05102539 C11.96561523 0.07165039 15.40999023 0.09227539 18.95874023 0.11352539 C18.95874023 10.67352539 18.95874023 21.23352539 18.95874023 32.11352539 C11.69874023 32.11352539 4.43874023 32.11352539 -3.04125977 32.11352539 C-3.06417214 27.71689506 -3.0840981 23.32047052 -3.09619141 18.92382812 C-3.10123097 17.42707621 -3.10806264 15.93032923 -3.11669922 14.43359375 C-3.12878135 12.28652732 -3.13449168 10.13952577 -3.13891602 7.99243164 C-3.14415283 6.69893799 -3.14938965 5.40544434 -3.15478516 4.07275391 C-3.00495271 0.16712152 -3.00495271 0.16712152 0 0 Z " fill="#1A212A" transform="translate(205.041259765625,186.886474609375)"/>
<path d="M0 0 C10.56 0 21.12 0 32 0 C32 3.63 32 7.26 32 11 C27.71 11 23.42 11 19 11 C19 7.7 19 4.4 19 1 C13.72 1 8.44 1 3 1 C3 59.74 3 118.48 3 179 C2.01 179 1.02 179 0 179 C0 119.93 0 60.86 0 0 Z " fill="#E2BD9D" transform="translate(110,130)"/>
<path d="M0 0 C6.93 0 13.86 0 21 0 C21 10.23 21 20.46 21 31 C14.07 31 7.14 31 0 31 C0 20.77 0 10.54 0 0 Z " fill="#11202C" transform="translate(320,188)"/>
<path d="M0 0 C6.6 0 13.2 0 20 0 C20 10.56 20 21.12 20 32 C16.885625 32.020625 13.77125 32.04125 10.5625 32.0625 C9.57967041 32.071604 8.59684082 32.08070801 7.58422852 32.09008789 C6.81522217 32.09258545 6.04621582 32.09508301 5.25390625 32.09765625 C4.46314697 32.10289307 3.6723877 32.10812988 2.85766602 32.11352539 C1 32 1 32 0 31 C-0.08790975 28.70848583 -0.10694038 26.41427476 -0.09765625 24.12109375 C-0.0962413 23.4344313 -0.09482635 22.74776886 -0.09336853 22.04029846 C-0.08775479 19.83932199 -0.07520007 17.63844591 -0.0625 15.4375 C-0.05748676 13.94856917 -0.05292355 12.45963676 -0.04882812 10.97070312 C-0.03863021 7.31373195 -0.01905779 3.65697883 0 0 Z " fill="#142131" transform="translate(155,187)"/>
<path d="M0 0 C4.62 0 9.24 0 14 0 C14 14.19 14 28.38 14 43 C9.38 43 4.76 43 0 43 C0 28.81 0 14.62 0 0 Z " fill="#E78931" transform="translate(157,325)"/>
<path d="M0 0 C5.94 0 11.88 0 18 0 C18 10.23 18 20.46 18 31 C12.06 31 6.12 31 0 31 C0 20.77 0 10.54 0 0 Z " fill="#13212D" transform="translate(275,188)"/>
<path d="M0 0 C11.88 0 23.76 0 36 0 C36 9.9 36 19.8 36 30 C1.02 30 -33.96 30 -70 30 C-70 29.67 -70 29.34 -70 29 C-18.52 28.505 -18.52 28.505 34 28 C34 19.75 34 11.5 34 3 C29.93822627 2.18764525 26.76649908 1.89267583 22.6875 1.9375 C21.61886719 1.94652344 20.55023438 1.95554687 19.44921875 1.96484375 C18.64097656 1.97644531 17.83273437 1.98804688 17 2 C17.020625 2.94875 17.04125 3.8975 17.0625 4.875 C17 8 17 8 16 10 C16.66 10 17.32 10 18 10 C17.34 11.32 16.68 12.64 16 14 C13.52076199 14.02685095 11.0418116 14.04676547 8.5625 14.0625 C7.85544922 14.07087891 7.14839844 14.07925781 6.41992188 14.08789062 C4.61306441 14.09653588 2.80612397 14.05220011 1 14 C0.505 13.505 0.505 13.505 0 13 C0 8.71 0 4.42 0 0 Z " fill="#1E596D" transform="translate(354,294)"/>
<path d="M0 0 C4.95 0 9.9 0 15 0 C15 59.07 15 118.14 15 179 C14.67 179 14.34 179 14 179 C14 124.22 14 69.44 14 13 C9.38 13.33 4.76 13.66 0 14 C0 9.38 0 4.76 0 0 Z " fill="#CE934C" transform="translate(233,130)"/>
<path d="M0 0 C8.58 0 17.16 0 26 0 C26 3.96 26 7.92 26 12 C17.42 12 8.84 12 0 12 C0 8.04 0 4.08 0 0 Z " fill="#699C8C" transform="translate(329,130)"/>
<path d="M0 0 C0 5.94 0 11.88 0 18 C-4.62 18 -9.24 18 -14 18 C-14 12.39 -14 6.78 -14 1 C-2.25 0 -2.25 0 0 0 Z " fill="#B56C32" transform="translate(142,216)"/>
<path d="M0 0 C0.33 0 0.66 0 1 0 C1 4.62 1 9.24 1 14 C-9.56 14 -20.12 14 -31 14 C-30.505 22.415 -30.505 22.415 -30 31 C-35.28 31 -40.56 31 -46 31 C-46 40.9 -46 50.8 -46 61 C-49.403125 61.020625 -52.80625 61.04125 -56.3125 61.0625 C-57.38153564 61.071604 -58.45057129 61.08070801 -59.55200195 61.09008789 C-60.39722412 61.09258545 -61.24244629 61.09508301 -62.11328125 61.09765625 C-62.97735596 61.10289307 -63.84143066 61.10812988 -64.73168945 61.11352539 C-67 61 -67 61 -70 60 C-69.85866501 58.22880197 -69.71176792 56.45804713 -69.5625 54.6875 C-69.48128906 53.70136719 -69.40007812 52.71523438 -69.31640625 51.69921875 C-69 49 -69 49 -68 46 C-65.69 46 -63.38 46 -61 46 C-61 41.05 -61 36.1 -61 31 C-60.67 31 -60.34 31 -60 31 C-60 36.28 -60 41.56 -60 47 C-62.97 47.495 -62.97 47.495 -66 48 C-66.02688151 49.64574566 -66.04634123 51.29161413 -66.0625 52.9375 C-66.07410156 53.85402344 -66.08570313 54.77054687 -66.09765625 55.71484375 C-66.25949049 57.96593327 -66.25949049 57.96593327 -65 59 C-63.65984779 59.15582303 -62.31241097 59.25044142 -60.96484375 59.31640625 C-60.23644287 59.35451416 -59.50804199 59.39262207 -58.75756836 59.43188477 C-57.8269458 59.47498779 -56.89632324 59.51809082 -55.9375 59.5625 C-52.988125 59.706875 -50.03875 59.85125 -47 60 C-47 50.1 -47 40.2 -47 30 C-43.37 29.67 -39.74 29.34 -36 29 C-36 25.7 -36 22.4 -36 19 C-35.01 18.67 -34.02 18.34 -33 18 C-32.67 16.35 -32.34 14.7 -32 13 C-21.44 13 -10.88 13 0 13 C0 8.71 0 4.42 0 0 Z " fill="#DE8E48" transform="translate(202,248)"/>
<path d="M0 0 C4.29 0 8.58 0 13 0 C13 5.94 13 11.88 13 18 C8.71 18 4.42 18 0 18 C0 12.06 0 6.12 0 0 Z " fill="#B86C31" transform="translate(128,185)"/>
<path d="M0 0 C3.96 0 7.92 0 12 0 C12 5.94 12 11.88 12 18 C8.04 18 4.08 18 0 18 C0 12.06 0 6.12 0 0 Z " fill="#EAD0A2" transform="translate(176,130)"/>
<path d="M0 0 C0.74156342 -0.00014603 1.48312683 -0.00029205 2.24716187 -0.0004425 C4.70370385 0.00025539 7.16017045 0.00804206 9.61669922 0.01586914 C11.31777912 0.01773376 13.01885956 0.01915745 14.71994019 0.02015686 C19.20145139 0.02397861 23.68293029 0.03380599 28.16442871 0.04486084 C32.73575402 0.05508231 37.30708453 0.05965606 41.87841797 0.06469727 C50.85108843 0.07542854 59.82373489 0.09250088 68.79638672 0.11352539 C68.46638672 0.77352539 68.13638672 1.43352539 67.79638672 2.11352539 C66.92608322 2.11130478 66.05577972 2.10908417 65.15910339 2.10679626 C56.96314689 2.08677131 48.76719859 2.07153997 40.57122326 2.06171322 C36.35744878 2.05649139 32.1436945 2.0494064 27.92993164 2.03808594 C23.86453871 2.02723224 19.79916522 2.02124327 15.73375893 2.01864815 C14.1816 2.01679839 12.62944215 2.01318635 11.07729149 2.00779533 C8.90575219 2.00055199 6.73429355 1.99953585 4.56274414 2 C3.32586349 1.99777939 2.08898285 1.99555878 0.81462097 1.99327087 C-2.25263836 1.97530655 -2.25263836 1.97530655 -5.20361328 3.11352539 C-6.51622962 7.05137442 -6.26764847 10.76871241 -6.19580078 14.86743164 C-6.17829135 16.62588948 -6.16138241 18.38435338 -6.14501953 20.14282227 C-6.11398462 22.91699879 -6.07836629 25.69087493 -6.03222656 28.46484375 C-5.99003412 31.14074543 -5.96649346 33.81628926 -5.94580078 36.49243164 C-5.92717987 37.3257753 -5.90855896 38.15911896 -5.88937378 39.01771545 C-5.87890625 41.35400391 -5.87890625 41.35400391 -6.20361328 45.11352539 C-9.73040427 47.46471938 -11.23240813 47.32795991 -15.39111328 47.23852539 C-16.47779297 47.22047852 -17.56447266 47.20243164 -18.68408203 47.18383789 C-19.51552734 47.16063477 -20.34697266 47.13743164 -21.20361328 47.11352539 C-21.20361328 50.08352539 -21.20361328 53.05352539 -21.20361328 56.11352539 C-21.53361328 56.11352539 -21.86361328 56.11352539 -22.20361328 56.11352539 C-22.20361328 52.48352539 -22.20361328 48.85352539 -22.20361328 45.11352539 C-17.91361328 45.11352539 -13.62361328 45.11352539 -9.20361328 45.11352539 C-9.20361328 30.59352539 -9.20361328 16.07352539 -9.20361328 1.11352539 C-6.24383744 -0.36636253 -3.24383319 -0.0165786 0 0 Z " fill="#2B1F17" transform="translate(180.20361328125,323.886474609375)"/>
<path d="M0 0 C0.22566098 1.37226269 0.42959874 2.74810272 0.625 4.125 C0.74101562 4.89070312 0.85703125 5.65640625 0.9765625 6.4453125 C1 9 1 9 -1 15 C-5.62 15 -10.24 15 -15 15 C-15 10.38 -15 5.76 -15 1 C-1.125 0 -1.125 0 0 0 Z " fill="#E76B26" transform="translate(144,170)"/>
<path d="M0 0 C6.93 0 13.86 0 21 0 C21 10.56 21 21.12 21 32 C3.84 32 -13.32 32 -31 32 C-33.68741925 26.6251615 -32 20.00925213 -32 14 C-21.44 14 -10.88 14 0 14 C0 9.38 0 4.76 0 0 Z M1 1 C0.855625 3.124375 0.71125 5.24875 0.5625 7.4375 C0.125 13.875 0.125 13.875 -1 15 C-3.14386657 15.15858842 -5.29266838 15.25129298 -7.44140625 15.31640625 C-9.39916992 15.37924805 -9.39916992 15.37924805 -11.39648438 15.44335938 C-12.7851533 15.48317608 -14.17382522 15.52288825 -15.5625 15.5625 C-16.95509183 15.60567989 -18.34767028 15.649294 -19.74023438 15.69335938 C-23.16002549 15.79985806 -26.57999896 15.90047056 -30 16 C-30 20.95 -30 25.9 -30 31 C-13.5 31 3 31 20 31 C20 21.1 20 11.2 20 1 C13.73 1 7.46 1 1 1 Z " fill="#302012" transform="translate(203,248)"/>
<path d="M0 0 C0.33 0 0.66 0 1 0 C1 3.3 1 6.6 1 10 C0.01 10.33 -0.98 10.66 -2 11 C-1.34 12.98 -0.68 14.96 0 17 C-0.99 17.33 -1.98 17.66 -3 18 C-3 19.98 -3 21.96 -3 24 C-6.3125 25.125 -6.3125 25.125 -10 26 C-10.99 25.34 -11.98 24.68 -13 24 C-13.2982655 19.45145106 -13.10962199 15.43848796 -12 11 C-13.98 11 -15.96 11 -18 11 C-18.33 11.99 -18.66 12.98 -19 14 C-19.33 13.34 -19.66 12.68 -20 12 C-19.67 11.34 -19.34 10.68 -19 10 C-19.66 9.67 -20.32 9.34 -21 9 C-14.07 9 -7.14 9 0 9 C0 6.03 0 3.06 0 0 Z " fill="#C17E44" transform="translate(176,210)"/>
<path d="M0 0 C4.62 0 9.24 0 14 0 C14 4.62 14 9.24 14 14 C3.94140625 14.09765625 3.94140625 14.09765625 1 14 C0 13 0 13 -0.09765625 10.05859375 C-0.06510417 6.70572917 -0.03255208 3.35286458 0 0 Z " fill="#C03E26" transform="translate(354,294)"/>
<path d="M0 0 C17.16 0 34.32 0 52 0 C52 0.66 52 1.32 52 2 C35.83 2 19.66 2 3 2 C3.33 3.32 3.66 4.64 4 6 C3.34 6 2.68 6 2 6 C1.67 12.93 1.34 19.86 1 27 C15.85 27 30.7 27 46 27 C46 27.33 46 27.66 46 28 C30.82 28 15.64 28 0 28 C0 18.76 0 9.52 0 0 Z " fill="#E18D3F" transform="translate(172,281)"/>
<path d="M0 0 C4.95 0 9.9 0 15 0 C15 3.96 15 7.92 15 12 C10.05 12 5.1 12 0 12 C0 8.04 0 4.08 0 0 Z " fill="#E6D4AE" transform="translate(233,130)"/>
<path d="M0 0 C2.09987545 3.14981318 2.23853238 3.80622989 2.16015625 7.37890625 C2.14919922 8.21744141 2.13824219 9.05597656 2.12695312 9.91992188 C2.09504883 11.22799805 2.09504883 11.22799805 2.0625 12.5625 C2.02812146 14.2928864 1.99796827 16.02336348 1.97265625 17.75390625 C1.95468994 18.52033447 1.93672363 19.2867627 1.91821289 20.07641602 C1.87232623 22.08533155 1.87232623 22.08533155 3 24 C2.0625 26.125 2.0625 26.125 1 28 C1.66 28.33 2.32 28.66 3 29 C2.67 29.33 2.34 29.66 2 30 C1.89907122 32.48589498 1.86028502 34.94338849 1.8671875 37.4296875 C1.86623077 38.17582306 1.86527405 38.92195862 1.86428833 39.69070435 C1.86360645 41.27280766 1.86546127 42.85491375 1.86962891 44.43701172 C1.87496213 46.85781164 1.86969199 49.27842475 1.86328125 51.69921875 C1.86394233 53.23437541 1.86522409 54.76953195 1.8671875 56.3046875 C1.86516327 57.02977509 1.86313904 57.75486267 1.86105347 58.50192261 C1.87551092 61.60814984 2.0099248 64.02977439 3 67 C2.505 67.99 2.505 67.99 2 69 C2.32380126 70.33568021 2.65657551 71.66923011 3 73 C2.505 73.495 2.505 73.495 2 74 C1.91209439 75.44496022 1.89306471 76.89419495 1.90234375 78.34179688 C1.90564697 79.26786743 1.9089502 80.19393799 1.91235352 81.14807129 C1.92065186 82.16139526 1.9289502 83.17471924 1.9375 84.21875 C1.94128662 85.2646228 1.94507324 86.31049561 1.94897461 87.38806152 C1.96528731 91.87122429 1.99295983 96.35429652 2.02050781 100.83740234 C2.09416397 113.93462965 2.0124816 126.93717938 1 140 C0.67 140 0.34 140 0 140 C0 93.8 0 47.6 0 0 Z " fill="#1C2021" transform="translate(391,129)"/>
<path d="M0 0 C4.62 0 9.24 0 14 0 C14 3.96 14 7.92 14 12 C9.38 12 4.76 12 0 12 C0 8.04 0 4.08 0 0 Z " fill="#E8D1A9" transform="translate(156,130)"/>
<path d="M0 0 C6.6 0 13.2 0 20 0 C20 10.56 20 21.12 20 32 C16.885625 32.020625 13.77125 32.04125 10.5625 32.0625 C9.57967041 32.071604 8.59684082 32.08070801 7.58422852 32.09008789 C6.81522217 32.09258545 6.04621582 32.09508301 5.25390625 32.09765625 C4.46314697 32.10289307 3.6723877 32.10812988 2.85766602 32.11352539 C1 32 1 32 0 31 C-0.08790975 28.70848583 -0.10694038 26.41427476 -0.09765625 24.12109375 C-0.0962413 23.4344313 -0.09482635 22.74776886 -0.09336853 22.04029846 C-0.08775479 19.83932199 -0.07520007 17.63844591 -0.0625 15.4375 C-0.05748676 13.94856917 -0.05292355 12.45963676 -0.04882812 10.97070312 C-0.03863021 7.31373195 -0.01905779 3.65697883 0 0 Z M2 2 C1.97534119 5.96930989 1.95715977 9.93859034 1.94506836 13.90795898 C1.94002943 15.25920386 1.93319823 16.61044326 1.92456055 17.96166992 C1.91247581 19.90020434 1.90730172 21.838778 1.90234375 23.77734375 C1.89710693 24.94515381 1.89187012 26.11296387 1.88647461 27.31616211 C1.69338505 29.91891551 1.69338505 29.91891551 3 31 C5.69654854 31.07319621 8.36691458 31.09242537 11.0625 31.0625 C11.82111328 31.05798828 12.57972656 31.05347656 13.36132812 31.04882812 C15.24091871 31.0370068 17.12046899 31.01907078 19 31 C19.21047821 16.96447662 19.21047821 16.96447662 18 3 C16.83722968 1.60843516 16.83722968 1.60843516 13.62109375 1.90234375 C12.22652923 1.90901631 10.83198257 1.92097468 9.4375 1.9375 C8.72658203 1.94201172 8.01566406 1.94652344 7.28320312 1.95117188 C5.52209987 1.96299136 3.76103964 1.98092737 2 2 Z " fill="#3C2614" transform="translate(155,187)"/>
<path d="M0 0 C4.29 0 8.58 0 13 0 C13 3.96 13 7.92 13 12 C8.71 12 4.42 12 0 12 C0 8.04 0 4.08 0 0 Z " fill="#EAD2A8" transform="translate(203,130)"/>
<path d="M0 0 C3.96 0 7.92 0 12 0 C12 3.96 12 7.92 12 12 C8.04 12 4.08 12 0 12 C0 8.04 0 4.08 0 0 Z " fill="#E4D2A7" transform="translate(329,130)"/>
<path d="M0 0 C2.64 0 5.28 0 8 0 C9.35439668 2.70879335 9.06501451 5.00933268 9 8 C9.66 8 10.32 8 11 8 C11.33 9.32 11.66 10.64 12 12 C7.32798795 13.20568053 2.78503708 13.09382426 -2 13 C-3.55952523 9.88094953 -2.6359489 7.35318513 -2 4 C-0.9375 1.5625 -0.9375 1.5625 0 0 Z " fill="#CC792F" transform="translate(163,249)"/>
<path d="M0 0 C1.7015625 0.2784375 1.7015625 0.2784375 3.4375 0.5625 C4.613125 0.706875 5.78875 0.85125 7 1 C7.33 0.67 7.66 0.34 8 0 C9.65 0 11.3 0 13 0 C13 3.3 13 6.6 13 10 C8.71 10 4.42 10 0 10 C0 6.7 0 3.4 0 0 Z M3 2 C3 5 3 5 3 5 Z " fill="#E9D2A8" transform="translate(129,131)"/>
<path d="M0 0 C1.20366211 0.00483398 1.20366211 0.00483398 2.43164062 0.00976562 C3.68170898 0.02233398 3.68170898 0.02233398 4.95703125 0.03515625 C5.80201172 0.03966797 6.64699219 0.04417969 7.51757812 0.04882812 C9.6015928 0.06060222 11.68557102 0.07853735 13.76953125 0.09765625 C13.76953125 0.42765625 13.76953125 0.75765625 13.76953125 1.09765625 C7.40635465 2.25459745 1.23348132 2.1702849 -5.23046875 2.09765625 C-5.23046875 6.71765625 -5.23046875 11.33765625 -5.23046875 16.09765625 C-3.09964844 16.07445312 -0.96882813 16.05125 1.2265625 16.02734375 C3.29174199 16.01174343 5.3569149 15.99960088 7.42211914 15.98779297 C8.85671937 15.97773925 10.29129914 15.96409431 11.72583008 15.94677734 C13.78862563 15.92250076 15.8511501 15.91116706 17.9140625 15.90234375 C19.15518799 15.89187012 20.39631348 15.88139648 21.67504883 15.87060547 C24.76953125 16.09765625 24.76953125 16.09765625 27.76953125 18.09765625 C16.21953125 18.09765625 4.66953125 18.09765625 -7.23046875 18.09765625 C-7.23046875 12.48765625 -7.23046875 6.87765625 -7.23046875 1.09765625 C-4.46481493 0.17577164 -2.84763173 -0.02019597 0 0 Z " fill="#06263B" transform="translate(281.23046875,246.90234375)"/>
<path d="M0 0 C5.61 0 11.22 0 17 0 C17 3.96 17 7.92 17 12 C16.67 12 16.34 12 16 12 C16 8.37 16 4.74 16 1 C14.39125 1.0825 12.7825 1.165 11.125 1.25 C10.22007812 1.29640625 9.31515625 1.3428125 8.3828125 1.390625 C5.87720805 1.75347015 5.87720805 1.75347015 4.75 3.8125 C3.71060447 6.84407029 2.8330114 9.90595766 2 13 C0.3603125 13.2165625 0.3603125 13.2165625 -1.3125 13.4375 C-4.93122987 13.88288104 -4.93122987 13.88288104 -8 15 C-10.6875 14.5625 -10.6875 14.5625 -13 14 C-13 13.34 -13 12.68 -13 12 C-8.71 12 -4.42 12 0 12 C0 8.04 0 4.08 0 0 Z " fill="#E49C4E" transform="translate(216,130)"/>
<path d="M0 0 C0.87454834 0.00523682 1.74909668 0.01047363 2.65014648 0.01586914 C3.59438477 0.0190918 4.53862305 0.02231445 5.51147461 0.02563477 C6.50469727 0.03401367 7.49791992 0.04239258 8.52124023 0.05102539 C9.51833008 0.05553711 10.51541992 0.06004883 11.54272461 0.06469727 C14.01478872 0.07652532 16.48673541 0.0930069 18.95874023 0.11352539 C18.62874023 0.77352539 18.29874023 1.43352539 17.95874023 2.11352539 C11.68874023 2.11352539 5.41874023 2.11352539 -1.04125977 2.11352539 C-1.02063477 4.27915039 -1.00000977 6.44477539 -0.97875977 8.67602539 C-0.94288906 16.52383636 -1.4199668 24.29189078 -2.04125977 32.11352539 C-2.37125977 32.11352539 -2.70125977 32.11352539 -3.04125977 32.11352539 C-3.0659148 27.71696366 -3.08409819 23.32043819 -3.09619141 18.92382812 C-3.10123097 17.42707621 -3.10806264 15.93032923 -3.11669922 14.43359375 C-3.12878135 12.28652732 -3.13449168 10.13952577 -3.13891602 7.99243164 C-3.14415283 6.69893799 -3.14938965 5.40544434 -3.15478516 4.07275391 C-3.00495271 0.16712152 -3.00495271 0.16712152 0 0 Z " fill="#563B22" transform="translate(205.041259765625,186.886474609375)"/>
<path d="M0 0 C4.95 0 9.9 0 15 0 C15 3.96 15 7.92 15 12 C14.34 12 13.68 12 13 12 C13 8.7 13 5.4 13 2 C9.37 2 5.74 2 2 2 C2.14109986 4.10448938 2.28804175 6.2085877 2.4375 8.3125 C2.55931641 10.07013672 2.55931641 10.07013672 2.68359375 11.86328125 C2.8867371 15.02590958 2.8867371 15.02590958 4 18 C2.68 18 1.36 18 0 18 C0 12.06 0 6.12 0 0 Z " fill="#E29949" transform="translate(188,130)"/>
<path d="M0 0 C24.42 0 48.84 0 74 0 C74 0.33 74 0.66 74 1 C72.7199987 1.0154612 72.7199987 1.0154612 71.41413879 1.03123474 C63.3658989 1.12927828 55.31773118 1.23180243 47.26961231 1.33933926 C43.13216055 1.39446527 38.99470159 1.44786849 34.85717773 1.49731445 C30.86303916 1.5451106 26.86898363 1.59745839 22.87494469 1.65294075 C21.35237386 1.67329536 19.82978033 1.69201956 18.30716896 1.70907402 C16.17189979 1.73327131 14.03678547 1.76330393 11.90161133 1.79467773 C10.6869368 1.81022202 9.47226227 1.8257663 8.22077942 1.84178162 C5.36407514 1.98211508 2.77804961 2.34576871 0 3 C0 2.01 0 1.02 0 0 Z " fill="#BF6C22" transform="translate(173,309)"/>
<path d="M0 0 C0.66 0.33 1.32 0.66 2 1 C2.6875 4.5 2.6875 4.5 3 8 C2.67 8.33 2.34 8.66 2 9 C1.87814857 10.34983748 1.82233169 11.70574701 1.79467773 13.06079102 C1.77473251 13.92160782 1.75478729 14.78242462 1.73423767 15.66932678 C1.71752518 16.60473801 1.70081268 17.54014923 1.68359375 18.50390625 C1.66281265 19.45692123 1.64203156 20.40993622 1.62062073 21.39183044 C1.55501823 24.4486441 1.49619082 27.50554656 1.4375 30.5625 C1.39432494 32.62956663 1.35071099 34.69662414 1.30664062 36.76367188 C1.19932599 41.84235595 1.09808909 46.9211297 1 52 C4.3 52 7.6 52 11 52 C11 50.02 11 48.04 11 46 C11.33 46 11.66 46 12 46 C12 48.31 12 50.62 12 53 C7.38 53 2.76 53 -2 53 C-1.01 52.505 -1.01 52.505 0 52 C0 34.84 0 17.68 0 0 Z " fill="#82413A" transform="translate(145,327)"/>
<path d="M0 0 C10.89 0 21.78 0 33 0 C33 3.96 33 7.92 33 12 C32.67 12 32.34 12 32 12 C31.7834375 10.63875 31.7834375 10.63875 31.5625 9.25 C31.14089532 6.81406186 30.5995854 4.39834161 30 2 C20.1 2 10.2 2 0 2 C0 1.34 0 0.68 0 0 Z " fill="#1F5970" transform="translate(276,265)"/>
<path d="M0 0 C1.98 0 3.96 0 6 0 C6 5.94 6 11.88 6 18 C5.67 18 5.34 18 5 18 C4.67 16.35 4.34 14.7 4 13 C2.68 12.67 1.36 12.34 0 12 C0 8.04 0 4.08 0 0 Z " fill="#E08F39" transform="translate(170,130)"/>
<path d="M0 0 C4.95 0 9.9 0 15 0 C15 0.33 15 0.66 15 1 C14.30132812 1.04898438 13.60265625 1.09796875 12.8828125 1.1484375 C11.97273438 1.22320312 11.06265625 1.29796875 10.125 1.375 C9.22007812 1.44460937 8.31515625 1.51421875 7.3828125 1.5859375 C4.82058097 1.79568132 4.82058097 1.79568132 3 4 C2.61984012 6.5963192 2.49404686 9.1662335 2.34375 11.78515625 C2.2303125 12.51605469 2.116875 13.24695313 2 14 C-0.88415883 15.44207941 -3.41721528 15.09394887 -6.625 15.0625 C-7.81351562 15.05347656 -9.00203125 15.04445312 -10.2265625 15.03515625 C-11.14179688 15.02355469 -12.05703125 15.01195312 -13 15 C-13 14.34 -13 13.68 -13 13 C-8.71 13 -4.42 13 0 13 C0 8.71 0 4.42 0 0 Z " fill="#739982" transform="translate(354,156)"/>
<path d="M0 0 C4.29 0 8.58 0 13 0 C13 0.66 13 1.32 13 2 C9.37 2 5.74 2 2 2 C1.67 9.92 1.34 17.84 1 26 C6.48742709 26.01415292 6.48742709 26.01415292 11 24 C11.07205511 22.31391034 11.08386068 20.62499341 11.0625 18.9375 C11.04896484 17.55884766 11.04896484 17.55884766 11.03515625 16.15234375 C11.02355469 15.44207031 11.01195312 14.73179687 11 14 C11.66 14 12.32 14 13 14 C13 18.29 13 22.58 13 27 C8.71 27 4.42 27 0 27 C0 18.09 0 9.18 0 0 Z " fill="#D1D8B9" transform="translate(341,142)"/>
<path d="M0 0 C0.99 0 1.98 0 3 0 C3 4.95 3 9.9 3 15 C-2.94 15.33 -8.88 15.66 -15 16 C-15 21.28 -15 26.56 -15 32 C-15.33 32 -15.66 32 -16 32 C-16.22119939 29.37549914 -16.42746669 26.75129514 -16.625 24.125 C-16.68945312 23.37863281 -16.75390625 22.63226563 -16.8203125 21.86328125 C-16.96087365 19.9129953 -16.98759849 17.95530533 -17 16 C-13.97846935 12.97846935 -11.06267172 13.03333349 -6.88671875 12.90234375 C-5.30310547 12.91974609 -5.30310547 12.91974609 -3.6875 12.9375 C-1.810625 12.958125 0.06625 12.97875 2 13 C1.34 8.71 0.68 4.42 0 0 Z " fill="#19536D" transform="translate(289,232)"/>
<path d="M0 0 C3.96 0 7.92 0 12 0 C12 3.96 12 7.92 12 12 C8.04 12 4.08 12 0 12 C0 8.04 0 4.08 0 0 Z M1 1 C1 3.97 1 6.94 1 10 C3.97 10 6.94 10 10 10 C10 7.03 10 4.06 10 1 C7.03 1 4.06 1 1 1 Z " fill="#D6D9BB" transform="translate(329,130)"/>
<path d="M0 0 C0.66 0 1.32 0 2 0 C2 2.97 2 5.94 2 9 C6.455 8.505 6.455 8.505 11 8 C11.33 5.36 11.66 2.72 12 0 C12.66 0 13.32 0 14 0 C14 3.63 14 7.26 14 11 C9.38 11 4.76 11 0 11 C0 7.37 0 3.74 0 0 Z " fill="#F2CB93" transform="translate(156,131)"/>
<path d="M0 0 C0.33 0 0.66 0 1 0 C1.44561227 2.05644039 1.85544168 4.12065673 2.25 6.1875 C2.48203125 7.33605469 2.7140625 8.48460937 2.953125 9.66796875 C3 13 3 13 1.046875 15.92578125 C0.37140625 16.61027344 -0.3040625 17.29476562 -1 18 C-1 17.34 -1 16.68 -1 16 C-4.96 16 -8.92 16 -13 16 C-13 19.96 -13 23.92 -13 28 C-8.71 28 -4.42 28 0 28 C0 28.33 0 28.66 0 29 C-4.62 29 -9.24 29 -14 29 C-14 24.38 -14 19.76 -14 15 C-9.38 15 -4.76 15 0 15 C0 10.05 0 5.1 0 0 Z " fill="#EA8D41" transform="translate(142,219)"/>
<path d="M0 0 C2.97 0 5.94 0 9 0 C9 2.31 9 4.62 9 7 C2.25 7.125 2.25 7.125 0 6 C0 4.02 0 2.04 0 0 Z " fill="#796441" transform="translate(195,155)"/>
<path d="M0 0 C3.96 0 7.92 0 12 0 C12 5.94 12 11.88 12 18 C8.04 18 4.08 18 0 18 C0 17.67 0 17.34 0 17 C6.625 15 6.625 15 10 15 C10.33 10.71 10.66 6.42 11 2 C6.545 2.495 6.545 2.495 2 3 C1.34 2.01 0.68 1.02 0 0 Z " fill="#BF6A21" transform="translate(129,185)"/>
<path d="M0 0 C1.98 0 3.96 0 6 0 C5.01 0.4640625 5.01 0.4640625 4 0.9375 C1.55823502 3.45557014 1.72857594 4.28107372 1.75 7.6875 C1.81423833 9.1259798 1.89163547 10.56416999 2 12 C2.75925781 11.89300781 3.51851563 11.78601563 4.30078125 11.67578125 C5.29464844 11.55589844 6.28851563 11.43601562 7.3125 11.3125 C8.29863281 11.18488281 9.28476562 11.05726563 10.30078125 10.92578125 C13 11 13 11 16 14 C10.72 14 5.44 14 0 14 C0 9.38 0 4.76 0 0 Z " fill="#5E9E9E" transform="translate(293,280)"/>
<path d="M0 0 C0 5.94 0 11.88 0 18 C-4.62 18 -9.24 18 -14 18 C-10 16 -10 16 -6.3125 15.5 C-5.219375 15.335 -4.12625 15.17 -3 15 C-1.78306124 12.56612247 -1.68040104 10.58161154 -1.4375 7.875 C-1.293125 6.26625 -1.14875 4.6575 -1 3 C-4.96 2.67 -8.92 2.34 -13 2 C-13 1.67 -13 1.34 -13 1 C-11.20843648 0.83222817 -9.4167455 0.66581706 -7.625 0.5 C-6.62726563 0.4071875 -5.62953125 0.314375 -4.6015625 0.21875 C-2 0 -2 0 0 0 Z " fill="#BD6B24" transform="translate(142,216)"/>
<path d="M0 0 C0.02703381 1.93742341 0.04641125 3.87495479 0.0625 5.8125 C0.07410156 6.89144531 0.08570313 7.97039062 0.09765625 9.08203125 C0 12 0 12 -1 15 C-1.66 14.67 -2.32 14.34 -3 14 C-3 10.37 -3 6.74 -3 3 C-4.32 3.33 -5.64 3.66 -7 4 C-7.99 3.34 -8.98 2.68 -10 2 C-6.3558226 -0.4294516 -4.28758728 -0.16179575 0 0 Z " fill="#983A24" transform="translate(142,154)"/>
<path d="M0 0 C1.98 0.99 1.98 0.99 4 2 C3.01 2.33 2.02 2.66 1 3 C1 4.65 1 6.3 1 8 C4.3 7.67 7.6 7.34 11 7 C11.33 4.69 11.66 2.38 12 0 C12.33 0 12.66 0 13 0 C13 3.3 13 6.6 13 10 C8.71 10 4.42 10 0 10 C0 6.7 0 3.4 0 0 Z " fill="#F6D29D" transform="translate(129,131)"/>
<path d="M0 0 C0.33 0 0.66 0 1 0 C1.05386629 2.12472576 1.09273071 4.24983652 1.125 6.375 C1.14820313 7.55835938 1.17140625 8.74171875 1.1953125 9.9609375 C1 13 1 13 -1 15 C-3.1640625 14.7578125 -3.1640625 14.7578125 -5.625 14.125 C-6.44226563 13.92132813 -7.25953125 13.71765625 -8.1015625 13.5078125 C-8.72804687 13.34023438 -9.35453125 13.17265625 -10 13 C-10 13.66 -10 14.32 -10 15 C-10.66 15 -11.32 15 -12 15 C-12 13.68 -12 12.36 -12 11 C-8.04 11 -4.08 11 0 11 C0 7.37 0 3.74 0 0 Z " fill="#312227" transform="translate(157,369)"/>
<path d="M0 0 C1.32 0 2.64 0 4 0 C4 3.96 4 7.92 4 12 C2.68 12 1.36 12 0 12 C-1.16063604 7.74433453 -0.76173392 4.3164922 0 0 Z " fill="#3D251B" transform="translate(165,221)"/>
<path d="M0 0 C0.33 0 0.66 0 1 0 C1 5.28 1 10.56 1 16 C-0.98 16.33 -2.96 16.66 -5 17 C-5.66 19.64 -6.32 22.28 -7 25 C-7.33 25 -7.66 25 -8 25 C-8.125 18.375 -8.125 18.375 -7 15 C-4.69 15 -2.38 15 0 15 C0 10.05 0 5.1 0 0 Z " fill="#C56E36" transform="translate(141,279)"/>
<path d="M0 0 C1.32 0.66 2.64 1.32 4 2 C3.01 2 2.02 2 1 2 C1 6.95 1 11.9 1 17 C0.01 17 -0.98 17 -2 17 C-2.05398987 14.72942623 -2.09278742 12.45848712 -2.125 10.1875 C-2.14820313 8.92292969 -2.17140625 7.65835937 -2.1953125 6.35546875 C-2 3 -2 3 0 0 Z " fill="#934339" transform="translate(131,307)"/>
<path d="M0 0 C1.65322266 0.01740234 1.65322266 0.01740234 3.33984375 0.03515625 C4.99693359 0.04869141 4.99693359 0.04869141 6.6875 0.0625 C7.54214844 0.07410156 8.39679688 0.08570313 9.27734375 0.09765625 C9.27734375 0.42765625 9.27734375 0.75765625 9.27734375 1.09765625 C5.64734375 1.09765625 2.01734375 1.09765625 -1.72265625 1.09765625 C-1.72265625 4.39765625 -1.72265625 7.69765625 -1.72265625 11.09765625 C1.57734375 11.09765625 4.87734375 11.09765625 8.27734375 11.09765625 C8.27734375 11.42765625 8.27734375 11.75765625 8.27734375 12.09765625 C3.98734375 12.09765625 -0.30265625 12.09765625 -4.72265625 12.09765625 C-3.7601331 0.13486848 -3.7601331 0.13486848 0 0 Z " fill="#E88A3B" transform="translate(132.72265625,141.90234375)"/>
<path d="M0 0 C0 5.61 0 11.22 0 17 C-0.99 16.67 -1.98 16.34 -3 16 C-2.34 16 -1.68 16 -1 16 C-1 15.01 -1 14.02 -1 13 C-2.32 12.67 -3.64 12.34 -5 12 C-4.34 12 -3.68 12 -3 12 C-2.9729957 10.54176788 -2.95360213 9.08339325 -2.9375 7.625 C-2.92589844 6.81289063 -2.91429687 6.00078125 -2.90234375 5.1640625 C-2.85533666 2.95062858 -2.85533666 2.95062858 -4 1 C-2 0 -2 0 0 0 Z " fill="#181C20" transform="translate(174,380)"/>
<path d="M0 0 C9.24 0 18.48 0 28 0 C28 0.33 28 0.66 28 1 C26.5437328 1.36256858 25.08488815 1.71479793 23.625 2.0625 C22.81289062 2.25972656 22.00078125 2.45695313 21.1640625 2.66015625 C19 3 19 3 17 2 C14.12089412 1.76725791 11.25853505 1.58027243 8.375 1.4375 C7.57320313 1.39431641 6.77140625 1.35113281 5.9453125 1.30664062 C3.9637489 1.20048543 1.98189729 1.09973145 0 1 C0 0.67 0 0.34 0 0 Z M18 3 C18 6 18 6 18 6 Z " fill="#F1DCB8" transform="translate(114,130)"/>
<path d="M0 0 C0.33 0 0.66 0 1 0 C1.66 1.98 2.32 3.96 3 6 C9.27 6.33 15.54 6.66 22 7 C22 7.33 22 7.66 22 8 C18.5625177 8.02901394 15.12506688 8.04680335 11.6875 8.0625 C10.22280273 8.07506836 10.22280273 8.07506836 8.72851562 8.08789062 C7.79072266 8.09111328 6.85292969 8.09433594 5.88671875 8.09765625 C4.59060669 8.10551147 4.59060669 8.10551147 3.26831055 8.11352539 C1 8 1 8 -2 7 C-1.34 4.69 -0.68 2.38 0 0 Z " fill="#D87D3F" transform="translate(134,301)"/>
<path d="M0 0 C0.99 0.33 1.98 0.66 3 1 C2.34 3.64 1.68 6.28 1 9 C4.53411321 11.12046792 7.94393835 11.53199289 12 12 C12 12.33 12 12.66 12 13 C8.04 13 4.08 13 0 13 C0 8.71 0 4.42 0 0 Z " fill="#599C9C" transform="translate(277,130)"/>
<path d="M0 0 C0.33 1.32 0.66 2.64 1 4 C-3.67201205 5.20568053 -8.21496292 5.09382426 -13 5 C-13.33 4.34 -13.66 3.68 -14 3 C-11.03 3 -8.06 3 -5 3 C-5 2.34 -5 1.68 -5 1 C-3 0 -3 0 0 0 Z " fill="#D6812C" transform="translate(174,257)"/>
<path d="M0 0 C4.62 0 9.24 0 14 0 C14 5.28 14 10.56 14 16 C13.67 16 13.34 16 13 16 C12.93941406 15.25234375 12.87882813 14.5046875 12.81640625 13.734375 C12.73261719 12.74953125 12.64882812 11.7646875 12.5625 10.75 C12.48128906 9.77546875 12.40007812 8.8009375 12.31640625 7.796875 C12.03653074 4.77228378 12.03653074 4.77228378 11 1 C7.37 1 3.74 1 0 1 C0 0.67 0 0.34 0 0 Z " fill="#993F17" transform="translate(128,248)"/>
<path d="M0 0 C1.98 0 3.96 0 6 0 C4.68 0.33 3.36 0.66 2 1 C1.74984127 4.41642759 1.74984127 4.41642759 2 8 C2.99 8.66 3.98 9.32 5 10 C4.67 10.99 4.34 11.98 4 13 C2.68 12.67 1.36 12.34 0 12 C0 8.04 0 4.08 0 0 Z " fill="#DD9448" transform="translate(170,130)"/>
<path d="M0 0 C2.97 0 5.94 0 9 0 C9 1.65 9 3.3 9 5 C6.36 5 3.72 5 1 5 C1 4.34 1 3.68 1 3 C1.99 2.67 2.98 2.34 4 2 C2.68 1.34 1.36 0.68 0 0 Z " fill="#404345" transform="translate(358,360)"/>
<path d="M0 0 C0.66 0 1.32 0 2 0 C2 3.3 2 6.6 2 10 C2.66 10 3.32 10 4 10 C3.34 11.32 2.68 12.64 2 14 C1.34 14 0.68 14 0 14 C0 9.38 0 4.76 0 0 Z " fill="#33505C" transform="translate(368,294)"/>
<path d="M0 0 C0.99 0.495 0.99 0.495 2 1 C1.67 3.31 1.34 5.62 1 8 C5.29 8.66 9.58 9.32 14 10 C14 10.33 14 10.66 14 11 C9.38 11 4.76 11 0 11 C0 7.37 0 3.74 0 0 Z " fill="#F4D19E" transform="translate(233,131)"/>
<path d="M0 0 C0.99 0 1.98 0 3 0 C3.05447047 1.41623216 3.09300508 2.83308191 3.125 4.25 C3.14820313 5.03890625 3.17140625 5.8278125 3.1953125 6.640625 C2.9828378 9.20731941 2.28654105 10.7916067 1 13 C-0.00496852 9.98509443 -0.10335303 7.95818308 -0.0625 4.8125 C-0.05347656 3.91144531 -0.04445312 3.01039063 -0.03515625 2.08203125 C-0.02355469 1.39496094 -0.01195312 0.70789063 0 0 Z " fill="#F38A23" transform="translate(152,131)"/>
<path d="M0 0 C0.66 0 1.32 0 2 0 C2 0.66 2 1.32 2 2 C2.66 2 3.32 2 4 2 C3.67 5.63 3.34 9.26 3 13 C2.34 13 1.68 13 1 13 C0.67 8.71 0.34 4.42 0 0 Z " fill="#662819" transform="translate(130,293)"/>
<path d="M0 0 C2.33294775 -0.04241723 4.66702567 -0.04092937 7 0 C8 1 8 1 8.09765625 3.50390625 C8.08605469 4.51324219 8.07445312 5.52257812 8.0625 6.5625 C8.05347656 7.57441406 8.04445313 8.58632813 8.03515625 9.62890625 C8.02355469 10.41136719 8.01195312 11.19382812 8 12 C6 10 6 10 5.8046875 8.0546875 C5.90234375 5.02734375 5.90234375 5.02734375 6 2 C3.03 1.505 3.03 1.505 0 1 C0 0.67 0 0.34 0 0 Z " fill="#155B6B" transform="translate(300,295)"/>
<path d="M0 0 C1.62490954 -0.02698189 3.24994633 -0.04638757 4.875 -0.0625 C5.77992188 -0.07410156 6.68484375 -0.08570313 7.6171875 -0.09765625 C10 0 10 0 12 1 C12 1.66 12 2.32 12 3 C7.71 3 3.42 3 -1 3 C-0.67 2.01 -0.34 1.02 0 0 Z " fill="#729280" transform="translate(356,291)"/>
<path d="M0 0 C7.26 0 14.52 0 22 0 C22 0.33 22 0.66 22 1 C21.44014404 1.02505615 20.88028809 1.0501123 20.3034668 1.07592773 C17.76458695 1.19203745 15.22606447 1.3146958 12.6875 1.4375 C11.36588867 1.49647461 11.36588867 1.49647461 10.01757812 1.55664062 C8.74624023 1.61948242 8.74624023 1.61948242 7.44921875 1.68359375 C6.66893311 1.72025146 5.88864746 1.75690918 5.0847168 1.79467773 C2.80670899 1.94125263 2.80670899 1.94125263 0 3 C0 2.01 0 1.02 0 0 Z " fill="#DE883A" transform="translate(202,220)"/>
<path d="M0 0 C0.99 0 1.98 0 3 0 C3 4.95 3 9.9 3 15 C2.01 15 1.02 15 0 15 C0 14.34 0 13.68 0 13 C0.66 13 1.32 13 2 13 C1.34 8.71 0.68 4.42 0 0 Z " fill="#105362" transform="translate(289,232)"/>
<path d="M0 0 C3.96 0 7.92 0 12 0 C11.67 0.99 11.34 1.98 11 3 C9.54257537 3.08096803 8.08387193 3.13917774 6.625 3.1875 C5.81289062 3.22230469 5.00078125 3.25710937 4.1640625 3.29296875 C3.44992188 3.19628906 2.73578125 3.09960938 2 3 C1.34 2.01 0.68 1.02 0 0 Z " fill="#C76A2A" transform="translate(129,185)"/>
<path d="M0 0 C4.29 0 8.58 0 13 0 C13 0.33 13 0.66 13 1 C4.57142857 3.42857143 4.57142857 3.42857143 0 2 C0 1.34 0 0.68 0 0 Z " fill="#DF9248" transform="translate(203,142)"/>
<path d="M0 0 C1.65 0 3.3 0 5 0 C5 3.63 5 7.26 5 11 C4.67 11 4.34 11 4 11 C3.54427083 9.01432292 3.08854167 7.02864583 2.6328125 5.04296875 C2.01992277 2.72257026 2.01992277 2.72257026 0 0 Z " fill="#E28B37" transform="translate(227,131)"/>
<path d="M0 0 C2.31 0 4.62 0 7 0 C7 2.64 7 5.28 7 8 C6.67 8 6.34 8 6 8 C5.67 6.35 5.34 4.7 5 3 C3.35 2.67 1.7 2.34 0 2 C0 1.34 0 0.68 0 0 Z " fill="#285660" transform="translate(383,294)"/>
<path d="M0 0 C0.99 0 1.98 0 3 0 C2.67 0.99 2.34 1.98 2 3 C1.77674186 5.05893621 1.59294241 7.12233653 1.4375 9.1875 C1.35371094 10.27417969 1.26992188 11.36085937 1.18359375 12.48046875 C1.12300781 13.31191406 1.06242187 14.14335937 1 15 C0.67 15 0.34 15 0 15 C0 10.05 0 5.1 0 0 Z " fill="#5F9E9E" transform="translate(277,172)"/>
<path d="M0 0 C1.98 0 3.96 0 6 0 C6 3.3 6 6.6 6 10 C5.67 10 5.34 10 5 10 C4.87625 8.081875 4.87625 8.081875 4.75 6.125 C4.54130069 3.94666582 4.54130069 3.94666582 4 2 C2.07935207 0.4100567 2.07935207 0.4100567 0 0 Z " fill="#95330D" transform="translate(136,154)"/>
<path d="M0 0 C1.65 0 3.3 0 5 0 C4.67 1.32 4.34 2.64 4 4 C2.68 4 1.36 4 0 4 C0 2.68 0 1.36 0 0 Z " fill="#416369" transform="translate(197,156)"/>
<path d="M0 0 C0.66 0.33 1.32 0.66 2 1 C2 1.99 2 2.98 2 4 C2.66 3.67 3.32 3.34 4 3 C4 4.32 4 5.64 4 7 C2.68 7 1.36 7 0 7 C-1.125 2.25 -1.125 2.25 0 0 Z " fill="#3C1B08" transform="translate(165,226)"/>
<path d="M0 0 C0.66 0 1.32 0 2 0 C2 1.98 2 3.96 2 6 C0.02 6 -1.96 6 -4 6 C-3.01 5.34 -2.02 4.68 -1 4 C-0.27617533 1.94074861 -0.27617533 1.94074861 0 0 Z " fill="#56543E" transform="translate(202,155)"/>
<path d="M0 0 C2.64 0 5.28 0 8 0 C7.67 0.66 7.34 1.32 7 2 C4.35139573 2.59355614 1.70802678 2.74209269 -1 3 C-0.67 2.01 -0.34 1.02 0 0 Z " fill="#954130" transform="translate(116,132)"/>
<path d="" fill="#FFFFFF" transform="translate(0,0)"/>
<path d="" fill="#FFFFFF" transform="translate(0,0)"/>
<path d="" fill="#FFFFFF" transform="translate(0,0)"/>
<path d="" fill="#FFFFFF" transform="translate(0,0)"/>
<path d="" fill="#FFFFFF" transform="translate(0,0)"/>
<path d="" fill="#FFFFFF" transform="translate(0,0)"/>
<path d="" fill="#FFFFFF" transform="translate(0,0)"/>
<path d="" fill="#FFFFFF" transform="translate(0,0)"/>
<path d="" fill="#FFFFFF" transform="translate(0,0)"/>
<path d="" fill="#FFFFFF" transform="translate(0,0)"/>
<path d="" fill="#FFFFFF" transform="translate(0,0)"/>
<path d="" fill="#FFFFFF" transform="translate(0,0)"/>
<path d="" fill="#FFFFFF" transform="translate(0,0)"/>
<path d="" fill="#FFFFFF" transform="translate(0,0)"/>
<path d="" fill="#FFFFFF" transform="translate(0,0)"/>
<path d="" fill="#FFFFFF" transform="translate(0,0)"/>
<path d="" fill="#FFFFFF" transform="translate(0,0)"/>
<path d="" fill="#FFFFFF" transform="translate(0,0)"/>
<path d="" fill="#FFFFFF" transform="translate(0,0)"/>
<path d="" fill="#FFFFFF" transform="translate(0,0)"/>
<path d="" fill="#FFFFFF" transform="translate(0,0)"/>
<path d="" fill="#FFFFFF" transform="translate(0,0)"/>
<path d="" fill="#FFFFFF" transform="translate(0,0)"/>
<path d="" fill="#FFFFFF" transform="translate(0,0)"/>
<path d="" fill="#FFFFFF" transform="translate(0,0)"/>
<path d="" fill="#FFFFFF" transform="translate(0,0)"/>
<path d="" fill="#FFFFFF" transform="translate(0,0)"/>
<path d="" fill="#FFFFFF" transform="translate(0,0)"/>
<path d="" fill="#FFFFFF" transform="translate(0,0)"/>
<path d="" fill="#FFFFFF" transform="translate(0,0)"/>
<path d="" fill="#FFFFFF" transform="translate(0,0)"/>
<path d="" fill="#FFFFFF" transform="translate(0,0)"/>
<path d="" fill="#FFFFFF" transform="translate(0,0)"/>
<path d="" fill="#FFFFFF" transform="translate(0,0)"/>
<path d="" fill="#FFFFFF" transform="translate(0,0)"/>
<path d="" fill="#FFFFFF" transform="translate(0,0)"/>
<path d="" fill="#FFFFFF" transform="translate(0,0)"/>
<path d="" fill="#FFFFFF" transform="translate(0,0)"/>
<path d="" fill="#FFFFFF" transform="translate(0,0)"/>
<path d="" fill="#FFFFFF" transform="translate(0,0)"/>
<path d="" fill="#FFFFFF" transform="translate(0,0)"/>
<path d="" fill="#FFFFFF" transform="translate(0,0)"/>
<path d="" fill="#FFFFFF" transform="translate(0,0)"/>
<path d="" fill="#FFFFFF" transform="translate(0,0)"/>
<path d="" fill="#FFFFFF" transform="translate(0,0)"/>
<path d="" fill="#FFFFFF" transform="translate(0,0)"/>
<path d="" fill="#FFFFFF" transform="translate(0,0)"/>
<path d="" fill="#FFFFFF" transform="translate(0,0)"/>
<path d="" fill="#FFFFFF" transform="translate(0,0)"/>
<path d="" fill="#FFFFFF" transform="translate(0,0)"/>
<path d="" fill="#FFFFFF" transform="translate(0,0)"/>
<path d="" fill="#FFFFFF" transform="translate(0,0)"/>
</svg>
